<svg xmlns="http://www.w3.org/2000/svg" width="25" height="25" fill="none"><defs><clipPath id="a"><path fill="#fff" fill-opacity="0" d="M0 0h25v25H0z"/></clipPath></defs><path fill="none" d="M0 0h25v25H0z"/><g clip-path="url(#a)"><path fill="#652AF5" fill-rule="evenodd" d="M2.08 12.5c0-5.76 4.66-10.42 10.42-10.42 5.75 0 10.41 4.66 10.41 10.42 0 2.71-1.04 5.18-2.73 7.03a9.982 9.982 0 0 0-2.8-2.33 9.934 9.934 0 0 0-4.88-1.28c-1.72 0-3.4.44-4.89 1.28-1.07.6-2.02 1.39-2.8 2.33a10.399 10.399 0 0 1-2.73-7.03Zm1.79 9.05c.07.23.23.45.46.58.12.08.25.12.38.14C6.84 23.98 9.55 25 12.5 25c2.94 0 5.65-1.02 7.78-2.73.13-.02.26-.06.38-.14.23-.13.39-.35.46-.58C23.51 19.27 25 16.06 25 12.5 25 5.59 19.4 0 12.5 0 5.59 0 0 5.59 0 12.5c0 3.56 1.48 6.77 3.87 9.05Zm14.75-.63a10.389 10.389 0 0 1-6.12 1.99c-2.29 0-4.41-.74-6.13-1.99.63-.77 1.39-1.42 2.26-1.91A7.923 7.923 0 0 1 12.5 18c1.35 0 2.68.35 3.86 1.01.87.49 1.64 1.14 2.26 1.91ZM12.5 6.39a3.43 3.43 0 0 0-3.43 3.43 3.42 3.42 0 0 0 3.43 3.42c1.89 0 3.42-1.53 3.42-3.42s-1.53-3.43-3.42-3.43ZM6.99 9.82a5.505 5.505 0 1 1 11.01 0c0 3.04-2.46 5.5-5.5 5.5-3.05 0-5.51-2.46-5.51-5.5Z"/></g></svg>